<svg xmlns="http://www.w3.org/2000/svg" viewBox="0 0 64 64" width="64" height="64">
  <rect width="64" height="64" rx="14" fill="#07060F"/>
  <polygon points="18,22 22,24 22,30 18,32 14,30 14,24" fill="rgba(255,255,255,.70)"/>
  <polygon points="18,34 22,36 22,42 18,44 14,42 14,36" fill="rgba(255,255,255,.70)"/>
  <polygon points="46,22 50,24 50,30 46,32 42,30 42,24" fill="#FF7B5A"/>
  <polygon points="46,34 50,36 50,42 46,44 42,42 42,36" fill="#4ECDC4"/>
  <polygon points="32,28 36,30 36,36 32,38 28,36 28,30" fill="#FFB347"/>
</svg>
