<svg xmlns="http://www.w3.org/2000/svg" viewBox="0 0 32 32" width="32" height="32">
  <rect width="32" height="32" rx="7" fill="#2A2018"/>
  <rect x="12" y="2.5" width="8" height="1.5" rx="0.75" fill="#E8A87C" opacity="0.4"/>
  <rect x="4" y="10" width="24" height="8" rx="2" fill="#C4845A"/>
  <rect x="4" y="8" width="5" height="11" rx="2" fill="#A06040"/>
  <rect x="23" y="8" width="5" height="11" rx="2" fill="#A06040"/>
  <rect x="6" y="6" width="7" height="5" rx="1.5" fill="#7A5030"/>
  <rect x="19" y="6" width="7" height="5" rx="1.5" fill="#7A5030"/>
  <rect x="7" y="7" width="5" height="3" rx="1" fill="#E8A87C"/>
  <rect x="20" y="7" width="5" height="3" rx="1" fill="#E8A87C"/>
  <rect x="9" y="18" width="2" height="3" rx="0.5" fill="#3E2612"/>
  <rect x="13" y="18" width="2" height="3" rx="0.5" fill="#3E2612"/>
  <rect x="17" y="18" width="2" height="3" rx="0.5" fill="#3E2612"/>
  <rect x="21" y="18" width="2" height="3" rx="0.5" fill="#3E2612"/>
</svg>
